<?xml version="1.0" encoding="UTF-8" standalone="no"?>
<!DOCTYPE svg PUBLIC "-//W3C//DTD SVG 1.1//EN" "http://www.w3.org/Graphics/SVG/1.1/DTD/svg11.dtd">
<svg width="100%" height="100%" viewBox="0 0 72 72" version="1.1" xmlns="http://www.w3.org/2000/svg" xmlns:xlink="http://www.w3.org/1999/xlink" xml:space="preserve" xmlns:serif="http://www.serif.com/" style="fill-rule:evenodd;clip-rule:evenodd;stroke-linejoin:round;stroke-miterlimit:1.41421;">
  <g>
    <path d="M19.592,19.901c0,-5.661 -1.979,-7.189 -5.122,-7.189c-3.146,0 -5.124,1.708 -5.124,6.201l0,4.045l-9.346,0l0,-3.415c0,-10.066 5.034,-15.818 14.738,-15.818c9.706,0 14.739,5.752 14.739,15.818l0,1.618c0,6.741 -2.155,10.964 -6.92,12.943c4.944,2.155 6.92,6.829 6.92,13.211l0,4.942c0,10.063 -5.033,15.818 -14.739,15.818c-9.704,0 -14.738,-5.755 -14.738,-15.818l0,-5.214l9.346,0l0,5.842c0,4.494 1.978,6.201 5.124,6.201c3.143,0 5.122,-1.528 5.122,-7.099l0,-4.944c0,-5.842 -1.979,-7.997 -6.472,-7.997l-3.324,0l0,-8.989l3.864,0c3.684,0 5.932,-1.615 5.932,-6.649l0,-3.507Z" style="fill:#231f20;fill-rule:nonzero;"/>
    <path d="M51.869,52.885c0,4.494 1.976,6.201 5.122,6.201c3.145,0 5.123,-1.707 5.123,-6.201l0,-33.972c0,-4.493 -1.978,-6.201 -5.123,-6.201c-3.146,0 -5.122,1.708 -5.122,6.201l0,33.972Zm-9.887,-33.342c0,-10.066 5.303,-15.818 15.009,-15.818c9.705,0 15.009,5.752 15.009,15.818l0,32.714c0,10.063 -5.304,15.818 -15.009,15.818c-9.706,0 -15.009,-5.755 -15.009,-15.818l0,-32.714Z" style="fill:#231f20;fill-rule:nonzero;"/>
    <path d="M40.58,62.593c0,2.629 -2.133,4.762 -4.762,4.762c-2.629,0 -4.762,-2.133 -4.762,-4.762c0,-2.632 2.133,-4.765 4.762,-4.765c2.629,0 4.762,2.133 4.762,4.765Z" style="fill:#231f20;fill-rule:nonzero;"/>
  </g>
</svg>
