<svg clip-rule="evenodd" fill-rule="evenodd" stroke-linejoin="round" stroke-miterlimit="1.41421" viewBox="0 0 72 72" xmlns="http://www.w3.org/2000/svg"><g fill="#231f20" fill-rule="nonzero"><path d="m19.592 19.901c0-5.661-1.979-7.189-5.122-7.189-3.146 0-5.124 1.708-5.124 6.201v4.045h-9.346v-3.415c0-10.066 5.034-15.818 14.738-15.818 9.706 0 14.739 5.752 14.739 15.818v1.618c0 6.741-2.155 10.964-6.92 12.943 4.944 2.155 6.92 6.829 6.92 13.211v4.942c0 10.063-5.033 15.818-14.739 15.818-9.704 0-14.738-5.755-14.738-15.818v-5.214h9.346v5.842c0 4.494 1.978 6.201 5.124 6.201 3.143 0 5.122-1.528 5.122-7.099v-4.944c0-5.842-1.979-7.997-6.472-7.997h-3.324v-8.989h3.864c3.684 0 5.932-1.615 5.932-6.649z"/><path d="m51.869 52.885c0 4.494 1.976 6.201 5.122 6.201 3.145 0 5.123-1.707 5.123-6.201v-33.972c0-4.493-1.978-6.201-5.123-6.201-3.146 0-5.122 1.708-5.122 6.201zm-9.887-33.342c0-10.066 5.303-15.818 15.009-15.818 9.705 0 15.009 5.752 15.009 15.818v32.714c0 10.063-5.304 15.818-15.009 15.818-9.706 0-15.009-5.755-15.009-15.818z"/><path d="m40.58 62.593c0 2.629-2.133 4.762-4.762 4.762s-4.762-2.133-4.762-4.762c0-2.632 2.133-4.765 4.762-4.765s4.762 2.133 4.762 4.765z"/></g></svg>